HIERARCHY
ROOT ROOT
{
	OFFSET 0.000000 56.020000 -5.659234
	CHANNELS 6 Xposition Yposition Zposition Xrotation Yrotation Zrotation 
	JOINT C_spine0001_bind_JNT
	{
		OFFSET 0.000000 1.618999 0.000000
		CHANNELS 3 Xrotation Yrotation Zrotation
		JOINT C_spine0002_bind_JNT
		{
			OFFSET 0.000000 4.942001 0.000001
			CHANNELS 3 Xrotation Yrotation Zrotation
			JOINT C_spine0003_bind_JNT
			{
				OFFSET 0.000000 4.942001 -0.000000
				CHANNELS 3 Xrotation Yrotation Zrotation
				JOINT C_neck0001_bind_JNT
				{
					OFFSET 0.000000 17.026009 -0.000000
					CHANNELS 3 Xrotation Yrotation Zrotation
					JOINT C_neck0002_bind_JNT
					{
						OFFSET 0.000000 3.249985 0.000000
						CHANNELS 3 Xrotation Yrotation Zrotation
						JOINT C_head_bind_JNT
						{
							OFFSET 0.000000 5.278008 0.000000
							CHANNELS 3 Xrotation Yrotation Zrotation
							End Site
							{
								OFFSET 0.000000 0.000000 0.000000
							}
						}
					}
				}
				JOINT L_clavicle_bind_JNT
				{
					OFFSET 4.590000 12.067001 0.834000
					CHANNELS 3 Xrotation Yrotation Zrotation
					JOINT L_armUpper0001_bind_JNT
					{
						OFFSET 7.812635 0.512001 -3.452945
						CHANNELS 3 Xrotation Yrotation Zrotation
						JOINT L_armLower0001_bind_JNT
						{
							OFFSET 15.265892 -6.552116 -0.058157
							CHANNELS 3 Xrotation Yrotation Zrotation
							JOINT L_hand0001_bind_JNT
							{
								OFFSET 14.747667 -6.369995 5.049225
								CHANNELS 3 Xrotation Yrotation Zrotation
								End Site
								{
									OFFSET 0.000000 0.000000 0.000000
								}
							}
						}
					}
				}
				JOINT R_clavicle_bind_JNT
				{
					OFFSET -4.590000 12.067001 0.834000
					CHANNELS 3 Xrotation Yrotation Zrotation
					JOINT R_armUpper0001_bind_JNT
					{
						OFFSET -7.812635 0.512001 -3.452945
						CHANNELS 3 Xrotation Yrotation Zrotation
						JOINT R_armLower0001_bind_JNT
						{
							OFFSET -15.265890 -6.552124 -0.058160
							CHANNELS 3 Xrotation Yrotation Zrotation
							JOINT R_hand0001_bind_JNT
							{
								OFFSET -14.746784 -6.369629 5.048937
								CHANNELS 3 Xrotation Yrotation Zrotation
								End Site
								{
									OFFSET 0.000000 0.000000 0.000000
								}
							}
						}
					}
				}
			}
		}
	}
	JOINT C_pelvis0001_bind_JNT
	{
		OFFSET -0.000000 0.000000 0.000000
		CHANNELS 3 Xrotation Yrotation Zrotation
		JOINT L_legUpper0001_bind_JNT
		{
			OFFSET 6.599999 -6.027000 0.539000
			CHANNELS 3 Xrotation Yrotation Zrotation
			JOINT L_legLower0001_bind_JNT
			{
				OFFSET -0.140713 -19.187443 0.040261
				CHANNELS 3 Xrotation Yrotation Zrotation
				JOINT L_foot0001_bind_JNT
				{
					OFFSET -0.132215 -18.028637 -1.138370
					CHANNELS 3 Xrotation Yrotation Zrotation
					JOINT L_foot0002_bind_JNT
					{
						OFFSET 0.007014 -4.693133 9.886524
						CHANNELS 3 Xrotation Yrotation Zrotation
						End Site
						{
							OFFSET 0.000000 0.000000 0.000000
						}
					}
				}
			}
		}
		JOINT R_legUpper0001_bind_JNT
		{
			OFFSET -6.599999 -6.027000 0.539000
			CHANNELS 3 Xrotation Yrotation Zrotation
			JOINT R_legLower0001_bind_JNT
			{
				OFFSET 0.140710 -19.187164 0.040550
				CHANNELS 3 Xrotation Yrotation Zrotation
				JOINT R_foot0001_bind_JNT
				{
					OFFSET 0.132215 -18.028633 -1.138362
					CHANNELS 3 Xrotation Yrotation Zrotation
					JOINT R_foot0002_bind_JNT
					{
						OFFSET -0.007014 -4.693128 9.886505
						CHANNELS 3 Xrotation Yrotation Zrotation
						End Site
						{
							OFFSET 0.000000 0.000000 0.000000
						}
					}
				}
			}
		}
	}
}
MOTION
Frames: 10
Frame Time: 0.033333
-77.364006 49.304520 -21.933277 -179.998093 27.539114 179.968201 175.061203 84.428452 -176.999008 5.903460 -0.913050 2.160205 2.907392 -1.357462 1.355956 1.790933 -0.558166 -1.085610 -0.893010 -5.170754 0.712954 -5.047939 -0.859657 4.734099 -0.288006 12.762859 1.130781 18.471735 29.637051 -55.565804 -2.778724 16.438307 -0.669900 1.580851 -32.656033 -45.193779 -1.290927 -22.848476 2.359383 2.231447 -13.681108 53.115467 -44.507740 39.238956 68.299057 15.914049 40.147308 11.587708 163.949463 83.322762 -165.522812 -16.540758 -0.298868 3.604764 28.989332 -6.582820 3.995216 -4.581212 -2.944830 -5.783724 -8.829828 -0.151840 -0.912247 -9.955875 0.133007 7.603777 13.047212 3.600317 -1.665538 -2.140726 -8.360227 -4.135237 -1.906206 -0.387617 0.164076 
-78.055740 49.268482 -22.080925 179.999207 25.562338 179.983154 179.660736 85.495972 178.448944 5.420370 -0.842463 2.049451 2.937915 -1.376273 1.528169 1.550935 -0.477441 -0.983755 -0.586857 -5.855711 0.843328 -4.016757 -0.744056 4.397130 -0.167009 13.256264 1.292188 20.371502 32.304905 -54.998489 -2.789010 16.349928 -0.489512 3.088500 -31.664055 -45.718018 -1.421410 -22.489841 1.632299 1.775953 -13.795279 53.118786 -47.309586 39.251827 71.462830 16.945984 40.782623 10.725531 166.092041 84.660751 -167.909607 -16.083820 0.151724 3.501759 24.255978 -7.018517 3.382648 -3.495638 -2.233781 -5.371450 -5.677288 -0.372003 -0.577470 -7.416941 0.055466 7.847916 11.691079 3.585359 -2.119746 -2.484468 -8.490237 -3.443780 -1.898601 -0.507999 0.171980 
-78.773888 49.325184 -22.266682 179.997833 24.112867 179.987061 -175.491867 86.144302 173.374039 5.069940 -0.775176 2.319909 2.655513 -1.228040 1.447461 1.421983 -0.607939 -0.896764 -0.604091 -6.239131 0.740176 -3.241208 -0.604901 4.536780 -0.191673 13.606194 1.533232 21.683611 33.610500 -54.390797 -3.103467 16.641655 -0.765955 3.663910 -31.160072 -45.687504 -1.144757 -22.862705 1.606225 1.421559 -13.829712 53.078392 -49.001915 39.638294 73.186760 16.922670 41.434902 11.012839 164.818054 85.396736 -167.012802 -15.795537 0.221865 3.848507 21.794064 -6.604660 2.807030 -3.335366 -2.278490 -4.642279 -3.589344 -0.064723 -0.683293 -5.808028 0.003031 7.943486 10.369052 3.114117 -1.680282 -2.556273 -8.085952 -3.547925 -2.342237 -0.620747 0.073670 
-79.546883 49.211605 -22.466488 179.990387 22.240055 179.994583 -171.503662 87.538910 169.427689 4.516870 -0.673666 2.080557 2.504235 -1.204348 1.504610 1.321872 -0.585993 -0.896187 -0.502442 -6.536331 0.943983 -2.301116 -0.861482 4.298346 0.038286 14.098445 1.861285 22.690165 34.605000 -54.366711 -3.814934 16.589788 -0.980718 4.394688 -30.734631 -45.827209 -0.608303 -23.050018 1.494744 0.994184 -13.788031 53.186195 -50.226215 39.761616 74.804382 17.018070 42.134682 10.763987 163.010284 87.014557 -165.263321 -15.551570 0.535472 3.806022 20.740154 -6.361053 2.273728 -3.825418 -1.615066 -4.009346 -1.997757 -0.178519 -0.436326 -3.650759 0.089216 7.761848 9.191265 3.019107 -1.440086 -2.888578 -7.669302 -3.457082 -2.585517 -0.686112 0.094979 
-80.117043 49.222710 -22.684322 179.998352 21.007088 179.980362 -159.094803 88.333046 157.114777 4.401435 -0.523206 1.984731 2.228386 -1.042528 1.445766 1.293775 -0.786734 -0.992404 -0.519886 -6.772341 0.842474 -1.730328 -0.709825 4.378757 0.028999 14.096766 1.663447 23.108635 35.255283 -53.750473 -4.149459 16.400156 -1.441365 4.869941 -30.340195 -45.528511 -0.544008 -23.622402 1.444717 1.052197 -13.760079 53.014721 -50.995949 39.859024 76.138710 17.280542 42.489063 10.641282 157.090164 88.056389 -159.373032 -14.889528 0.674061 3.784112 20.046015 -5.911526 2.127125 -4.092080 -1.242612 -3.557425 -1.480201 -0.331503 -0.506814 -2.592163 0.329113 7.876358 8.585703 2.567584 -1.406925 -3.077663 -7.425779 -3.395633 -2.851974 -0.657974 -0.023426 
-80.598503 49.162560 -22.862162 179.991867 20.624073 179.992874 -160.927658 88.055687 159.156479 4.156799 -0.787373 1.588848 2.117027 -1.143857 1.400874 1.094183 -0.681961 -1.152642 -0.348008 -6.684792 0.893682 -1.144543 -0.969063 4.309475 0.187355 14.588976 1.675532 22.828981 34.888943 -53.652931 -4.332626 16.505283 -2.150929 4.811997 -30.095089 -45.314636 -0.324948 -23.662298 1.366450 1.265840 -14.184165 53.193100 -50.909840 40.040932 76.880486 17.435736 42.833084 10.331787 158.673782 88.041946 -160.883820 -14.662206 0.677748 3.421870 19.937914 -5.967933 1.878534 -4.220313 -0.732521 -3.151613 -1.195794 -0.310317 -0.437810 -1.442657 0.045998 7.822834 7.897376 2.257052 -1.362109 -3.132100 -7.323396 -3.426797 -3.117477 -0.574413 -0.035632 
-81.040741 49.235123 -22.991562 -179.995972 20.541103 179.970306 -157.057129 87.926414 155.386703 4.149440 -0.686425 1.372459 2.102282 -1.251885 1.303392 0.956309 -0.661799 -1.432724 -0.259356 -6.633944 0.942201 -0.668880 -1.032191 4.578279 -0.040379 14.594662 1.693549 22.465559 34.621826 -53.689503 -4.334404 16.515791 -2.688362 4.618505 -30.064571 -45.121098 -0.313863 -23.876732 1.369899 1.758750 -14.319025 53.266548 -50.070759 39.843136 76.476379 17.964127 43.230293 10.045700 156.381897 87.792999 -158.352249 -14.430824 0.903821 2.967206 20.030695 -5.989156 1.890952 -4.790793 -0.531667 -2.625288 -1.283234 -0.284839 -0.528581 -1.350241 0.110279 7.411572 8.102176 1.745210 -1.107300 -3.198510 -6.827249 -3.416431 -3.795264 -0.664141 -0.106760 
-81.622353 49.236099 -23.014496 179.987106 21.140091 179.996613 -161.987503 87.114113 160.612274 4.184653 -1.003911 0.940944 1.860553 -1.300484 1.067673 0.809212 -0.685254 -1.463632 -0.115855 -6.334119 0.857113 -0.238094 -0.888355 4.606902 0.027169 14.728020 1.627309 21.791664 33.720825 -54.032124 -4.138381 16.704287 -3.402440 3.598411 -29.801899 -44.778831 -0.020828 -24.009571 1.405645 2.420940 -14.415943 53.578896 -48.443142 39.938797 75.442291 18.259842 43.418137 9.670656 162.198425 87.236282 -164.016815 -14.249657 0.965903 2.382447 20.089172 -6.040603 1.536294 -4.978952 -0.265761 -1.908369 -1.302677 -0.291611 -0.505219 -1.062025 0.343500 6.984096 9.031577 1.185732 -1.049798 -2.656399 -6.914438 -2.847686 -5.292218 -0.708935 -0.357120 
-82.102943 49.236488 -22.920761 179.999634 21.165882 179.973755 -157.191238 87.127373 155.861542 4.258964 -0.935495 0.610955 2.030907 -1.290022 0.954391 0.675788 -0.711531 -1.896632 -0.049628 -6.304844 1.092384 0.025046 -0.792084 5.080829 -0.119567 14.278202 1.515448 20.853428 33.170338 -54.531406 -4.430735 16.649628 -3.573603 2.784270 -29.715866 -44.792389 0.083873 -24.398561 1.598070 3.048454 -14.694883 53.548409 -46.421700 39.448727 74.156128 18.686769 43.578659 9.711668 161.435242 87.274582 -163.100815 -13.956899 1.176918 2.117452 20.077225 -5.903008 1.282117 -5.295506 -0.291966 -1.248222 -1.188369 -0.144690 -0.578821 -2.089763 0.541106 6.492527 11.538713 1.077903 -1.056506 -2.337399 -7.064122 -2.047688 -7.056422 -0.631446 -0.546675 
-82.463127 49.253769 -22.699696 179.991241 19.958229 179.990784 -144.088089 88.219398 142.955353 4.520512 -1.242111 0.002489 2.102144 -1.317623 0.718682 0.669119 -0.637111 -2.032612 -0.258922 -5.971153 1.078039 -0.212412 -0.610353 5.307244 -0.449793 13.939702 1.488950 19.704512 31.753155 -55.511189 -4.720718 16.516422 -4.133300 1.219733 -29.348854 -44.374596 0.189809 -24.538118 1.909236 3.946833 -14.987861 53.664467 -43.913143 39.246998 72.191063 18.345669 43.933865 9.971069 144.743790 88.219292 -146.379425 -13.894755 1.046175 1.722825 20.357603 -5.763415 1.263208 -5.564220 -0.022686 -1.001796 -1.413180 0.002898 -0.534837 -4.115908 0.525419 5.770387 14.782720 0.614771 -1.112592 -1.188094 -6.826389 -0.615910 -9.262589 -0.392526 -0.683249 
